<?xml version="1.0" encoding="utf-8"?>
<!-- Generator: Adobe Illustrator 19.0.0, SVG Export Plug-In . SVG Version: 6.00 Build 0)  -->
<svg version="1.1" id="Layer_1" xmlns="http://www.w3.org/2000/svg" xmlns:xlink="http://www.w3.org/1999/xlink" x="0px" y="0px"
	 viewBox="0 0 790 275" style="enable-background:new 0 0 790 275;" xml:space="preserve">
<g>
	<g>
		<path d="M334.6,97.2c0-18-4.3-34.1-12.9-48.3c-8.6-14.2-20.9-25.4-36.9-33.4c-16-8.1-34.6-12.1-55.8-12.1H120.6v268.8h68.9v-87.2
			H229c21.3,0,39.9-3.7,55.9-11.1c15.9-7.4,28.2-17.7,36.8-31C330.3,129.7,334.6,114.5,334.6,97.2z M256,120.6
			c-5.9,5.7-14.9,8.6-27,8.6h-39.5v-70H229c11.8,0,20.7,3.6,26.8,10.9c6,7.3,9.1,16.4,9.1,27.5C264.8,107.2,261.9,114.9,256,120.6z"
			/>
		<path d="M462.8,3.4h-46.9l-98,268.8h74l13.7-44.5h86.4l13.7,44.5h74.2L481.2,3.4H462.8z M422.5,172l26-84.9l26.2,84.9H422.5z"/>
		<polygon points="603.9,3.4 603.9,272.3 672.8,272.3 672.8,168.3 776.6,168.3 776.6,112.7 672.8,112.7 672.8,59.2 786,59.2 
			786,3.4 672.8,3.4 		"/>
		<rect x="3" y="216.7" width="68.9" height="55.5"/>
		<polygon points="3,75.6 11.9,195.5 62.9,195.5 71.8,75.6 71.8,3.4 3,3.4 		"/>
	</g>
</g>
</svg>
